<?xml version="1.0" encoding="UTF-8" standalone="no"?>
<!DOCTYPE svg PUBLIC "-//W3C//DTD SVG 20010904//EN"
              "http://www.w3.org/TR/2001/REC-SVG-20010904/DTD/svg10.dtd">

<svg xmlns="http://www.w3.org/2000/svg"
     width="11.1111in" height="8.33333in"
     viewBox="0 0 800 600">
  <path id="path"
        fill="none" stroke="black" stroke-width="1"
        d="M 873.00,47.00
           C 815.00,48.00 709.00,39.00 687.00,58.00
             665.00,77.00 703.00,285.00 645.00,366.00
             587.00,447.00 594.00,472.00 538.00,447.00
             482.00,422.00 463.00,377.00 408.00,407.00
             353.00,437.00 375.00,505.00 303.00,475.00
             231.00,445.00 175.00,423.00 180.00,358.00
             185.00,293.00 222.00,184.00 172.00,173.00
             122.00,162.00 25.00,116.00 84.00,90.00
             143.00,64.00 220.00,36.00 275.00,73.00
             330.00,110.00 382.00,135.00 401.00,185.00
             420.00,235.00 393.00,245.00 425.00,262.00
             457.00,279.00 505.00,279.00 509.00,233.00
             513.00,187.00 508.00,142.00 555.00,111.00" />
</svg>
