<?xml version="1.0" encoding="UTF-8" standalone="no"?>
<!DOCTYPE svg PUBLIC "-//W3C//DTD SVG 20010904//EN"
              "http://www.w3.org/TR/2001/REC-SVG-20010904/DTD/svg10.dtd">

<svg xmlns="http://www.w3.org/2000/svg"
     width="11.1111in" height="8.33333in"
     viewBox="0 0 800 600">
  <path id="path"
        fill="none" stroke="black" stroke-width="1"
        d="M -116.00,59.00
           C -33.00,59.00 569.00,59.00 612.00,59.00
             655.00,59.00 679.00,71.00 679.00,117.00
             679.00,163.00 653.00,174.00 613.00,175.00
             573.00,176.00 190.00,174.00 130.00,174.00
             75.00,175.00 63.00,199.00 62.00,232.00
             61.00,265.00 81.00,280.00 130.00,281.00
             179.00,282.00 581.00,281.00 612.00,281.00
             643.00,281.00 672.00,297.00 671.00,340.00
             670.00,383.00 663.00,397.00 610.00,399.00
             557.00,401.00 168.00,399.00 121.00,399.00" />
</svg>
