<?xml version="1.0" encoding="UTF-8" standalone="no"?>
<!DOCTYPE svg PUBLIC "-//W3C//DTD SVG 20010904//EN"
              "http://www.w3.org/TR/2001/REC-SVG-20010904/DTD/svg10.dtd">

<svg xmlns="http://www.w3.org/2000/svg"
     width="11.1111in" height="8.33333in"
     viewBox="0 0 800 600">
  <path id="level04"
        fill="none" stroke="black" stroke-width="1"
        d="M -44.46,151.87
           C 81.19,92.30 153.63,81.55 179.03,110.10
             207.02,147.46 85.52,229.91 77.18,262.87
             61.77,329.80 104.74,344.99 145.55,352.67
             193.64,345.66 227.34,321.07 269.30,325.10
             286.70,328.84 293.21,328.83 309.28,344.80
             314.15,368.54 307.33,425.94 410.00,415.05
             486.50,404.71 464.40,363.31 454.79,342.31
             445.18,321.31 435.99,294.52 442.68,288.33
             456.44,267.49 488.69,281.37 526.20,257.41
             544.39,250.24 551.77,189.99 598.30,163.00
             660.24,163.55 648.34,203.65 720.77,204.77
             740.29,208.01 744.48,187.89 757.14,177.92
             790.25,165.63 848.08,147.81 872.51,142.01M 149.74,81.36" />
</svg>
