<?xml version="1.0" encoding="UTF-8" standalone="no"?>
<!DOCTYPE svg PUBLIC "-//W3C//DTD SVG 20010904//EN"
              "http://www.w3.org/TR/2001/REC-SVG-20010904/DTD/svg10.dtd">

<svg xmlns="http://www.w3.org/2000/svg"
     width="11.1111in" height="8.33333in"
     viewBox="0 0 800 600">
  <path id="path"
        fill="none" stroke="black" stroke-width="1"
        d="M -130.64,72.88
           C -19.97,75.05 -13.71,89.43 121.43,52.55
             214.76,24.37 221.84,30.51 244.63,33.11
             293.73,46.72 303.94,120.78 391.70,127.86
             455.49,123.67 434.43,125.01 477.80,111.03
             516.47,86.97 520.25,69.49 550.76,60.49
             581.28,51.49 670.77,57.31 690.11,97.62
             696.00,125.22 608.08,135.48 597.33,169.17
             594.54,189.18 617.05,216.91 658.81,227.53
             697.86,245.97 716.67,261.13 732.35,280.82
             740.46,309.28 730.35,326.81 710.68,341.70
             672.80,334.09 639.10,335.54 606.68,331.51
             547.50,335.24 520.85,348.55 513.92,375.76
             514.56,395.86 517.61,395.61 518.78,410.98
             519.95,426.36 527.60,426.66 526.73,439.16
             519.00,470.24 474.59,475.39 442.70,476.01
             394.79,480.14 352.17,445.84 318.28,419.67
             264.76,393.46 207.35,354.99 162.91,342.30
             87.20,335.71 47.47,380.59 -21.35,379.22
             -90.18,377.86 -55.02,376.77 -96.36,376.96" />
</svg>
